# File created by Blade
# Date/Time:  Tue Jan 27 19:23:16 2015
# Frame Rate: 120.000 fps
#------------------------------------------------------
:FULLY-SPECIFIED
:DEGREES
1916
root 3.566557 32.296117 0.190281 -3.782486 2.646104 0.680264
Spine 1.689361 10.849032 1.493948
Head 8.136693 -27.960449 -9.893582
LeftShoulder -2.696145 -8.997460 23.365911
LeftArm -5.570728 40.522478 -102.587870
LeftForeArm 2.068350 0.000000 14.864486
LeftHand 10.045040 0.000000 -4.142427
LeftHandThumb1 -26.253704 0.000000 33.147579
RightShoulder -5.303850 9.893389 -35.840644
RightArm 62.907638 60.187113 107.399290
RightForeArm 23.866593 -0.000000 146.114086
RightHand 33.167834 -0.000000 -21.737509
RightHandThumb1 -24.326973 -0.000000 -32.862282
LeftUpLeg 9.519847 0.097619 0.059919
LeftLeg 2.555044 -0.000000 -0.000000
LeftFoot -17.949089 12.837639 -23.608962
LeftToeBase 16.906488 -0.000000 -0.000000
RightUpLeg 9.187095 -9.868656 1.460697
RightLeg 0.526654 -0.000000 -0.000000
RightFoot -13.099623 -14.493853 13.650145
RightToeBase 10.638406 -0.000000 -0.000000
1917
root 3.569182 32.297335 0.191249 -3.813075 2.643759 0.696728
Spine 1.723700 10.900867 1.486171
Head 8.218655 -28.034929 -9.943422
LeftShoulder -2.687134 -9.010157 23.310236
LeftArm -5.555078 40.617770 -102.511565
LeftForeArm 2.105507 -0.000000 14.842707
LeftHand 10.048585 -0.000000 -4.126953
LeftHandThumb1 -26.253704 0.000000 33.147579
RightShoulder -5.225185 9.776212 -35.863408
RightArm 62.227352 60.299998 106.589356
RightForeArm 23.384501 -0.000000 145.900043
RightHand 33.251275 -0.000000 -21.558446
RightHandThumb1 -24.326973 -0.000000 -32.862282
LeftUpLeg 9.520213 -0.024108 0.018866
LeftLeg 2.626915 -0.000000 -0.000000
LeftFoot -18.015224 12.911894 -23.692317
LeftToeBase 16.934895 -0.000000 -0.000000
RightUpLeg 9.224938 -9.878675 1.432614
RightLeg 0.519489 -0.000000 -0.000000
RightFoot -13.103448 -14.480943 13.657442
RightToeBase 10.692177 -0.000000 -0.000000
1918
root 3.570662 32.297383 0.187992 -3.818943 2.660475 0.708466
Spine 1.742798 10.946463 1.483293
Head 8.264370 -28.107314 -10.009979
LeftShoulder -2.703792 -9.002490 23.249985
LeftArm -5.482281 40.774210 -102.413155
LeftForeArm 1.960090 -0.000000 14.801413
LeftHand 9.997076 -0.000000 -4.291184
LeftHandThumb1 -26.253704 0.000000 33.147579
RightShoulder -5.180912 9.726645 -35.871453
RightArm 61.286916 60.371684 105.491374
RightForeArm 22.813575 -0.000000 145.728181
RightHand 33.015609 0.000000 -21.362991
RightHandThumb1 -24.326973 -0.000000 -32.862282
LeftUpLeg 9.499674 0.004413 0.010854
LeftLeg 2.662043 -0.000000 -0.000000
LeftFoot -18.001385 12.881964 -23.666724
LeftToeBase 16.908417 -0.000000 -0.000000
RightUpLeg 9.221963 -9.908271 1.417848
RightLeg 0.528582 -0.000000 -0.000000
RightFoot -13.101922 -14.481387 13.627848
RightToeBase 10.670833 -0.000000 -0.000000
1919
root 3.572783 32.296067 0.185817 -3.837036 2.685750 0.714234
Spine 1.781437 10.997704 1.486818
Head 8.271615 -28.181359 -10.052930
LeftShoulder -2.729660 -9.063458 23.216544
LeftArm -5.477627 40.862838 -102.374388
LeftForeArm 1.807421 0.000000 14.748889
LeftHand 10.005959 -0.000000 -5.201103
LeftHandThumb1 -26.253704 0.000000 33.147579
RightShoulder -5.171128 9.682144 -35.862464
RightArm 60.153603 60.416570 104.183488
RightForeArm 22.211449 -0.000000 145.435906
RightHand 32.745299 -0.000000 -21.226512
RightHandThumb1 -24.326973 -0.000000 -32.862282
LeftUpLeg 9.501909 0.050928 0.012797
LeftLeg 2.679583 -0.000000 -0.000000
LeftFoot -17.984803 12.815170 -23.633690
LeftToeBase 16.982813 -0.000000 -0.000000
RightUpLeg 9.248516 -9.928032 1.404727
RightLeg 0.512456 -0.000000 -0.000000
RightFoot -13.107973 -14.492197 13.608684
RightToeBase 10.601610 -0.000000 -0.000000
1920
root 3.572676 32.295159 0.184443 -3.864176 2.721901 0.710689
Spine 1.825038 11.029673 1.497306
Head 8.266999 -28.236877 -10.099874
LeftShoulder -2.724414 -9.131127 23.168097
LeftArm -5.512110 40.835388 -102.333726
LeftForeArm 1.909820 -0.000000 14.725038
LeftHand 10.007977 0.000000 -5.166717
LeftHandThumb1 -26.253704 0.000000 33.147579
RightShoulder -5.135097 9.564353 -35.847473
RightArm 59.085161 60.449309 102.971656
RightForeArm 21.748875 0.000000 144.992526
RightHand 32.463358 -0.000000 -21.307340
RightHandThumb1 -24.326973 -0.000000 -32.862282
LeftUpLeg 9.519201 0.067676 0.026459
LeftLeg 2.684582 -0.000000 -0.000000
LeftFoot -17.974585 12.743179 -23.630203
LeftToeBase 16.960640 -0.000000 -0.000000
RightUpLeg 9.284322 -9.981343 1.396708
RightLeg 0.503344 -0.000000 -0.000000
RightFoot -13.096357 -14.477178 13.570166
RightToeBase 10.625114 -0.000000 -0.000000
1921
root 3.571320 32.293502 0.181591 -3.881895 2.769712 0.712925
Spine 1.863203 11.023380 1.473315
Head 8.237747 -28.259253 -10.075934
LeftShoulder -2.770879 -9.292276 23.180774
LeftArm -5.651425 40.744380 -102.407820
LeftForeArm 1.983623 0.000000 14.659996
LeftHand 10.009320 -0.000000 -5.073014
LeftHandThumb1 -26.253704 0.000000 33.147579
RightShoulder -5.152579 9.521557 -35.786440
RightArm 57.809359 60.372891 101.583782
RightForeArm 21.376197 -0.000000 144.246697
RightHand 32.274121 0.000000 -21.157995
RightHandThumb1 -24.326973 -0.000000 -32.862282
LeftUpLeg 9.522601 -0.048879 0.010501
LeftLeg 2.693527 -0.000000 -0.000000
LeftFoot -18.023211 12.792084 -23.688970
LeftToeBase 16.916052 -0.000000 -0.000000
RightUpLeg 9.309823 -10.013964 1.392968
RightLeg 0.490564 -0.000000 -0.000000
RightFoot -13.121355 -14.482371 13.610401
RightToeBase 10.665996 -0.000000 -0.000000
1922
root 3.571844 32.291715 0.176438 -3.884574 2.821145 0.714291
Spine 1.885727 11.021642 1.454687
Head 8.223526 -28.273670 -10.050969
LeftShoulder -2.802394 -9.263855 23.168303
LeftArm -5.559486 40.655011 -102.323995
LeftForeArm 2.207008 -0.000000 14.608396
LeftHand 10.077729 -0.000000 -4.179483
LeftHandThumb1 -26.253704 0.000000 33.147579
RightShoulder -5.157153 9.427936 -35.727705
RightArm 56.538960 60.295027 100.252160
RightForeArm 21.115599 -0.000000 143.213488
RightHand 32.079723 -0.000000 -21.226100
RightHandThumb1 -24.326973 -0.000000 -32.862282
LeftUpLeg 9.518712 -0.013435 0.019346
LeftLeg 2.672368 -0.000000 -0.000000
LeftFoot -17.986136 12.734695 -23.630457
LeftToeBase 16.910236 -0.000000 -0.000000
RightUpLeg 9.311187 -10.035375 1.391803
RightLeg 0.491128 -0.000000 -0.000000
RightFoot -13.141855 -14.506315 13.600451
RightToeBase 10.633810 -0.000000 -0.000000
1923
root 3.571416 32.291186 0.174525 -3.910770 2.862742 0.700007
Spine 1.925356 10.993123 1.456252
Head 8.193124 -28.248463 -10.008113
LeftShoulder -2.865066 -9.146074 23.163052
LeftArm -5.382533 40.565365 -102.193440
LeftForeArm 2.224332 0.000000 14.553540
LeftHand 10.030255 -0.000000 -4.012214
LeftHandThumb1 -26.253704 0.000000 33.147579
RightShoulder -5.118035 9.177783 -35.668844
RightArm 55.572439 60.214046 99.268192
RightForeArm 20.931238 -0.000000 141.885031
RightHand 31.864737 0.000000 -21.419248
RightHandThumb1 -24.326973 -0.000000 -32.862282
LeftUpLeg 9.547899 -0.052043 0.034556
LeftLeg 2.645749 -0.000000 -0.000000
LeftFoot -17.988909 12.708485 -23.667996
LeftToeBase 16.920577 -0.000000 -0.000000
RightUpLeg 9.371188 -9.943651 1.422012
RightLeg 0.419699 -0.000000 -0.000000
RightFoot -13.144275 -14.640580 13.648518
RightToeBase 10.665738 -0.000000 -0.000000
1924
root 3.572648 32.289848 0.172653 -3.934475 2.904135 0.700798
Spine 1.952309 10.967654 1.430362
Head 8.211572 -28.247875 -9.961074
LeftShoulder -2.887166 -9.075553 23.183988
LeftArm -5.299620 40.383317 -102.131976
LeftForeArm 2.240373 0.000000 14.530890
LeftHand 9.998769 0.000000 -3.873246
LeftHandThumb1 -26.253704 0.000000 33.147579
RightShoulder -5.118712 9.074055 -35.615737
RightArm 54.369312 60.106203 98.140571
RightForeArm 20.907874 -0.000000 140.244742
RightHand 31.582297 -0.000000 -21.318267
RightHandThumb1 -24.326973 -0.000000 -32.862282
LeftUpLeg 9.579476 -0.092231 0.030054
LeftLeg 2.612761 -0.000000 -0.000000
LeftFoot -17.977293 12.706003 -23.655512
LeftToeBase 16.872293 -0.000000 -0.000000
RightUpLeg 9.405613 -9.952170 1.417036
RightLeg 0.405786 -0.000000 -0.000000
RightFoot -13.153551 -14.676808 13.640458
RightToeBase 10.610028 -0.000000 -0.000000
1925
root 3.577416 32.289221 0.170842 -3.951294 2.948744 0.719113
Spine 1.962172 10.909696 1.384687
Head 8.258909 -28.223033 -9.914006
LeftShoulder -2.900479 -9.010498 23.208399
LeftArm -5.274819 40.140292 -102.103376
LeftForeArm 2.253847 -0.000000 14.552877
LeftHand 9.919368 -0.000000 -3.898107
LeftHandThumb1 -26.253704 0.000000 33.147579
RightShoulder -5.125802 8.884833 -35.553941
RightArm 53.428183 59.944109 97.273922
RightForeArm 20.978584 -0.000000 138.304518
RightHand 31.362797 -0.000000 -21.062566
RightHandThumb1 -24.326973 -0.000000 -32.862282
LeftUpLeg 9.600755 -0.147363 -0.002813
LeftLeg 2.586978 -0.000000 -0.000000
LeftFoot -17.971699 12.726675 -23.659472
LeftToeBase 16.884463 -0.000000 -0.000000
RightUpLeg 9.417377 -10.093122 1.367249
RightLeg 0.426969 -0.000000 -0.000000
RightFoot -13.155414 -14.575203 13.612955
RightToeBase 10.610483 -0.000000 -0.000000
1926
root 3.581014 32.288669 0.168014 -3.954226 2.990334 0.723902
Spine 1.953974 10.833738 1.351317
Head 8.309602 -28.178968 -9.869963
LeftShoulder -2.890710 -9.025956 23.229811
LeftArm -5.392193 39.777282 -102.137051
LeftForeArm 1.976558 0.000000 14.602240
LeftHand 10.137406 -0.000000 -6.065522
LeftHandThumb1 -26.253704 0.000000 33.147579
RightShoulder -5.138821 8.656387 -35.514408
RightArm 52.710352 59.757820 96.649619
RightForeArm 21.186133 -0.000000 136.106070
RightHand 31.328973 -0.000000 -20.368282
RightHandThumb1 -24.326973 -0.000000 -32.862282
LeftUpLeg 9.606880 -0.228737 -0.022864
LeftLeg 2.563669 -0.000000 -0.000000
LeftFoot -17.977398 12.751311 -23.687521
LeftToeBase 16.878812 -0.000000 -0.000000
RightUpLeg 9.426218 -10.126871 1.352417
RightLeg 0.417577 -0.000000 -0.000000
RightFoot -13.154984 -14.577899 13.608311
RightToeBase 10.598089 -0.000000 -0.000000
